<?xml version="1.0" encoding="UTF-8" standalone="no"?>
<!DOCTYPE svg PUBLIC "-//W3C//DTD SVG 1.1//EN"
 "http://www.w3.org/Graphics/SVG/1.1/DTD/svg11.dtd">
<!-- Generated by graphviz version 2.26.3 (20100126.1600)
 -->
<!-- Title: Diagram of: Calculator Pages: 1 -->
<svg width="404pt" height="44pt"
 viewBox="0.00 0.00 404.00 44.00" xmlns="http://www.w3.org/2000/svg" xmlns:xlink="http://www.w3.org/1999/xlink">
<g id="graph1" class="graph" transform="scale(1 1) rotate(0) translate(4 40)">
<title>Diagram of: Calculator</title>
<polygon fill="white" stroke="white" points="-4,5 -4,-40 401,-40 401,5 -4,5"/>
<!-- 1 -->
<g id="node1" class="node"><title>1</title>
<polygon fill="gold" stroke="black" stroke-width="2" points="82,-36 2.13163e-014,-36 0,-1.06581e-014 82,-0 82,-36"/>
<text text-anchor="middle" x="41" y="-13.4" font-family="Times New Roman,serif" font-size="14.00">cdiv</text>
</g>
<!-- 2 -->
<g id="node2" class="node"><title>2</title>
<polygon fill="gold" stroke="black" stroke-width="2" points="186,-36 100,-36 100,-1.06581e-014 186,-0 186,-36"/>
<text text-anchor="middle" x="143" y="-13.4" font-family="Times New Roman,serif" font-size="14.00">cmul</text>
</g>
<!-- 3 -->
<g id="node3" class="node"><title>3</title>
<polygon fill="gold" stroke="black" stroke-width="2" points="290,-36 204,-36 204,-1.06581e-014 290,-0 290,-36"/>
<text text-anchor="middle" x="247" y="-13.4" font-family="Times New Roman,serif" font-size="14.00">csub</text>
</g>
<!-- 4 -->
<g id="node4" class="node"><title>4</title>
<polygon fill="gold" stroke="black" stroke-width="2" points="396,-36 308,-36 308,-1.06581e-014 396,-0 396,-36"/>
<text text-anchor="middle" x="352" y="-13.4" font-family="Times New Roman,serif" font-size="14.00">csum</text>
</g>
</g>
</svg>
