<?xml version="1.0" encoding="UTF-8" standalone="no"?>
<!DOCTYPE svg PUBLIC "-//W3C//DTD SVG 1.1//EN"
 "http://www.w3.org/Graphics/SVG/1.1/DTD/svg11.dtd">
<!-- Generated by graphviz version 2.26.3 (20100126.1600)
 -->
<!-- Title: Levels within Calculator Pages: 1 -->
<svg width="436pt" height="100pt"
 viewBox="0.00 0.00 436.00 100.00" xmlns="http://www.w3.org/2000/svg" xmlns:xlink="http://www.w3.org/1999/xlink">
<g id="graph1" class="graph" transform="scale(1 1) rotate(0) translate(4 96)">
<title>Levels within Calculator</title>
<polygon fill="white" stroke="white" points="-4,5 -4,-96 433,-96 433,5 -4,5"/>
<g id="graph2" class="cluster"><title>cluster_0</title>
<polygon fill="lavender" stroke="black" points="8,-8 8,-84 420,-84 420,-8 8,-8"/>
<text text-anchor="middle" x="214" y="-67.4" font-family="Times New Roman,serif" font-size="14.00">Exported root entities</text>
</g>
<!-- 1 -->
<g id="node2" class="node"><title>1</title>
<polygon fill="gold" stroke="black" stroke-width="2" points="412,-52 330,-52 330,-16 412,-16 412,-52"/>
<text text-anchor="middle" x="371" y="-29.4" font-family="Times New Roman,serif" font-size="14.00">cdiv</text>
</g>
<!-- 2 -->
<g id="node3" class="node"><title>2</title>
<polygon fill="gold" stroke="black" stroke-width="2" points="312,-52 226,-52 226,-16 312,-16 312,-52"/>
<text text-anchor="middle" x="269" y="-29.4" font-family="Times New Roman,serif" font-size="14.00">cmul</text>
</g>
<!-- 3 -->
<g id="node4" class="node"><title>3</title>
<polygon fill="gold" stroke="black" stroke-width="2" points="208,-52 122,-52 122,-16 208,-16 208,-52"/>
<text text-anchor="middle" x="165" y="-29.4" font-family="Times New Roman,serif" font-size="14.00">csub</text>
</g>
<!-- 4 -->
<g id="node5" class="node"><title>4</title>
<polygon fill="gold" stroke="black" stroke-width="2" points="104,-52 16,-52 16,-16 104,-16 104,-52"/>
<text text-anchor="middle" x="60" y="-29.4" font-family="Times New Roman,serif" font-size="14.00">csum</text>
</g>
</g>
</svg>
