<?xml version="1.0" encoding="UTF-8" standalone="no"?>
<!DOCTYPE svg PUBLIC "-//W3C//DTD SVG 1.1//EN"
 "http://www.w3.org/Graphics/SVG/1.1/DTD/svg11.dtd">
<!-- Generated by graphviz version 2.26.3 (20100126.1600)
 -->
<!-- Title: Levels within software Pages: 1 -->
<svg width="1086pt" height="110pt"
 viewBox="0.00 0.00 1086.00 110.00" xmlns="http://www.w3.org/2000/svg" xmlns:xlink="http://www.w3.org/1999/xlink">
<g id="graph1" class="graph" transform="scale(1 1) rotate(0) translate(4 106)">
<title>Levels within software</title>
<polygon fill="white" stroke="white" points="-4,5 -4,-106 1083,-106 1083,5 -4,5"/>
<g id="graph2" class="cluster"><title>cluster_&#45;1</title>
<polygon fill="lavender" stroke="black" points="8,-8 8,-94 1070,-94 1070,-8 8,-8"/>
<text text-anchor="middle" x="539" y="-77.4" font-family="Times New Roman,serif" font-size="14.00">Inaccessible entities</text>
</g>
<!-- 1 -->
<g id="node2" class="node"><title>1</title>
<polygon fill="crimson" stroke="black" points="1062,-62 946,-62 946,-16 1062,-16 1062,-62"/>
<text text-anchor="middle" x="1004" y="-42.4" font-family="Times New Roman,serif" font-size="14.00">Calculator</text>
<text text-anchor="middle" x="1004" y="-26.4" font-family="Times New Roman,serif" font-size="14.00">cdiv</text>
</g>
<!-- 2 -->
<g id="node3" class="node"><title>2</title>
<polygon fill="crimson" stroke="black" points="928,-62 812,-62 812,-16 928,-16 928,-62"/>
<text text-anchor="middle" x="870" y="-42.4" font-family="Times New Roman,serif" font-size="14.00">Calculator</text>
<text text-anchor="middle" x="870" y="-26.4" font-family="Times New Roman,serif" font-size="14.00">cmul</text>
</g>
<!-- 3 -->
<g id="node4" class="node"><title>3</title>
<polygon fill="crimson" stroke="black" points="794,-62 678,-62 678,-16 794,-16 794,-62"/>
<text text-anchor="middle" x="736" y="-42.4" font-family="Times New Roman,serif" font-size="14.00">Calculator</text>
<text text-anchor="middle" x="736" y="-26.4" font-family="Times New Roman,serif" font-size="14.00">csub</text>
</g>
<!-- 4 -->
<g id="node5" class="node"><title>4</title>
<polygon fill="crimson" stroke="black" points="660,-62 544,-62 544,-16 660,-16 660,-62"/>
<text text-anchor="middle" x="602" y="-42.4" font-family="Times New Roman,serif" font-size="14.00">Calculator</text>
<text text-anchor="middle" x="602" y="-26.4" font-family="Times New Roman,serif" font-size="14.00">csum</text>
</g>
<!-- 5 -->
<g id="node6" class="node"><title>5</title>
<polygon fill="crimson" stroke="black" points="526,-62 382,-62 382,-16 526,-16 526,-62"/>
<text text-anchor="middle" x="454" y="-42.4" font-family="Times New Roman,serif" font-size="14.00">Calculator.Test</text>
<text text-anchor="middle" x="454" y="-26.4" font-family="Times New Roman,serif" font-size="14.00">main</text>
</g>
<!-- 6 -->
<g id="node7" class="node"><title>6</title>
<polygon fill="crimson" stroke="black" points="364,-62 220,-62 220,-16 364,-16 364,-62"/>
<text text-anchor="middle" x="292" y="-42.4" font-family="Times New Roman,serif" font-size="14.00">Calculator.Test</text>
<text text-anchor="middle" x="292" y="-26.4" font-family="Times New Roman,serif" font-size="14.00">test1</text>
</g>
<!-- 7 -->
<g id="node8" class="node"><title>7</title>
<polygon fill="crimson" stroke="black" points="202,-62 118,-62 118,-16 202,-16 202,-62"/>
<text text-anchor="middle" x="160" y="-42.4" font-family="Times New Roman,serif" font-size="14.00">Test</text>
<text text-anchor="middle" x="160" y="-26.4" font-family="Times New Roman,serif" font-size="14.00">main</text>
</g>
<!-- 8 -->
<g id="node9" class="node"><title>8</title>
<polygon fill="crimson" stroke="black" points="100,-62 16,-62 16,-16 100,-16 100,-62"/>
<text text-anchor="middle" x="58" y="-42.4" font-family="Times New Roman,serif" font-size="14.00">Test</text>
<text text-anchor="middle" x="58" y="-26.4" font-family="Times New Roman,serif" font-size="14.00">test1</text>
</g>
</g>
</svg>
