<?xml version="1.0" encoding="UTF-8" standalone="no"?>
<!DOCTYPE svg PUBLIC "-//W3C//DTD SVG 1.1//EN"
 "http://www.w3.org/Graphics/SVG/1.1/DTD/svg11.dtd">
<!-- Generated by graphviz version 2.26.3 (20100126.1600)
 -->
<!-- Title: Chinese Whispers module suggestions Pages: 1 -->
<svg width="1128pt" height="86pt"
 viewBox="0.00 0.00 1128.00 86.00" xmlns="http://www.w3.org/2000/svg" xmlns:xlink="http://www.w3.org/1999/xlink">
<g id="graph1" class="graph" transform="scale(1 1) rotate(0) translate(4 82)">
<title>Chinese Whispers module suggestions</title>
<polygon fill="white" stroke="white" points="-4,5 -4,-82 1125,-82 1125,5 -4,5"/>
<g id="graph2" class="cluster"><title>cluster_1</title>
<polygon fill="lavender" stroke="black" points="8,-8 8,-70 140,-70 140,-8 8,-8"/>
</g>
<g id="graph3" class="cluster"><title>cluster_2</title>
<polygon fill="lavender" stroke="black" points="148,-8 148,-70 280,-70 280,-8 148,-8"/>
</g>
<g id="graph4" class="cluster"><title>cluster_3</title>
<polygon fill="lavender" stroke="black" points="288,-8 288,-70 420,-70 420,-8 288,-8"/>
</g>
<g id="graph5" class="cluster"><title>cluster_4</title>
<polygon fill="lavender" stroke="black" points="428,-8 428,-70 560,-70 560,-8 428,-8"/>
</g>
<g id="graph6" class="cluster"><title>cluster_5</title>
<polygon fill="lavender" stroke="black" points="568,-8 568,-70 728,-70 728,-8 568,-8"/>
</g>
<g id="graph7" class="cluster"><title>cluster_6</title>
<polygon fill="lavender" stroke="black" points="736,-8 736,-70 896,-70 896,-8 736,-8"/>
</g>
<g id="graph8" class="cluster"><title>cluster_7</title>
<polygon fill="lavender" stroke="black" points="904,-8 904,-70 1004,-70 1004,-8 904,-8"/>
</g>
<g id="graph9" class="cluster"><title>cluster_8</title>
<polygon fill="lavender" stroke="black" points="1012,-8 1012,-70 1112,-70 1112,-8 1012,-8"/>
</g>
<!-- 1 -->
<g id="node2" class="node"><title>1</title>
<polygon fill="crimson" stroke="black" points="132,-62 16,-62 16,-16 132,-16 132,-62"/>
<text text-anchor="middle" x="74" y="-42.4" font-family="Times New Roman,serif" font-size="14.00">Calculator</text>
<text text-anchor="middle" x="74" y="-26.4" font-family="Times New Roman,serif" font-size="14.00">cdiv</text>
</g>
<!-- 2 -->
<g id="node4" class="node"><title>2</title>
<polygon fill="crimson" stroke="black" points="272,-62 156,-62 156,-16 272,-16 272,-62"/>
<text text-anchor="middle" x="214" y="-42.4" font-family="Times New Roman,serif" font-size="14.00">Calculator</text>
<text text-anchor="middle" x="214" y="-26.4" font-family="Times New Roman,serif" font-size="14.00">cmul</text>
</g>
<!-- 3 -->
<g id="node6" class="node"><title>3</title>
<polygon fill="crimson" stroke="black" points="412,-62 296,-62 296,-16 412,-16 412,-62"/>
<text text-anchor="middle" x="354" y="-42.4" font-family="Times New Roman,serif" font-size="14.00">Calculator</text>
<text text-anchor="middle" x="354" y="-26.4" font-family="Times New Roman,serif" font-size="14.00">csub</text>
</g>
<!-- 4 -->
<g id="node8" class="node"><title>4</title>
<polygon fill="crimson" stroke="black" points="552,-62 436,-62 436,-16 552,-16 552,-62"/>
<text text-anchor="middle" x="494" y="-42.4" font-family="Times New Roman,serif" font-size="14.00">Calculator</text>
<text text-anchor="middle" x="494" y="-26.4" font-family="Times New Roman,serif" font-size="14.00">csum</text>
</g>
<!-- 5 -->
<g id="node10" class="node"><title>5</title>
<polygon fill="crimson" stroke="black" points="720,-62 576,-62 576,-16 720,-16 720,-62"/>
<text text-anchor="middle" x="648" y="-42.4" font-family="Times New Roman,serif" font-size="14.00">Calculator.Test</text>
<text text-anchor="middle" x="648" y="-26.4" font-family="Times New Roman,serif" font-size="14.00">main</text>
</g>
<!-- 6 -->
<g id="node12" class="node"><title>6</title>
<polygon fill="crimson" stroke="black" points="888,-62 744,-62 744,-16 888,-16 888,-62"/>
<text text-anchor="middle" x="816" y="-42.4" font-family="Times New Roman,serif" font-size="14.00">Calculator.Test</text>
<text text-anchor="middle" x="816" y="-26.4" font-family="Times New Roman,serif" font-size="14.00">test1</text>
</g>
<!-- 7 -->
<g id="node14" class="node"><title>7</title>
<polygon fill="crimson" stroke="black" points="996,-62 912,-62 912,-16 996,-16 996,-62"/>
<text text-anchor="middle" x="954" y="-42.4" font-family="Times New Roman,serif" font-size="14.00">Test</text>
<text text-anchor="middle" x="954" y="-26.4" font-family="Times New Roman,serif" font-size="14.00">main</text>
</g>
<!-- 8 -->
<g id="node16" class="node"><title>8</title>
<polygon fill="crimson" stroke="black" points="1104,-62 1020,-62 1020,-16 1104,-16 1104,-62"/>
<text text-anchor="middle" x="1062" y="-42.4" font-family="Times New Roman,serif" font-size="14.00">Test</text>
<text text-anchor="middle" x="1062" y="-26.4" font-family="Times New Roman,serif" font-size="14.00">test1</text>
</g>
</g>
</svg>
