<?xml version="1.0" encoding="UTF-8" standalone="no"?>
<!DOCTYPE svg PUBLIC "-//W3C//DTD SVG 1.1//EN"
 "http://www.w3.org/Graphics/SVG/1.1/DTD/svg11.dtd">
<!-- Generated by graphviz version 2.26.3 (20100126.1600)
 -->
<!-- Title: Current module groupings Pages: 1 -->
<svg width="856pt" height="100pt"
 viewBox="0.00 0.00 856.00 100.00" xmlns="http://www.w3.org/2000/svg" xmlns:xlink="http://www.w3.org/1999/xlink">
<g id="graph1" class="graph" transform="scale(1 1) rotate(0) translate(4 96)">
<title>Current module groupings</title>
<polygon fill="white" stroke="white" points="-4,5 -4,-96 853,-96 853,5 -4,5"/>
<g id="graph2" class="cluster"><title>cluster_Calculator</title>
<polygon fill="lavender" stroke="black" points="8,-8 8,-84 420,-84 420,-8 8,-8"/>
<text text-anchor="middle" x="214" y="-67.4" font-family="Times New Roman,serif" font-size="14.00">Calculator</text>
</g>
<g id="graph3" class="cluster"><title>cluster_Calculator&#45;Test</title>
<polygon fill="lavender" stroke="black" points="428,-8 428,-84 630,-84 630,-8 428,-8"/>
<text text-anchor="middle" x="529" y="-67.4" font-family="Times New Roman,serif" font-size="14.00">Calculator.Test</text>
</g>
<g id="graph4" class="cluster"><title>cluster_Test</title>
<polygon fill="lavender" stroke="black" points="638,-8 638,-84 840,-84 840,-8 638,-8"/>
<text text-anchor="middle" x="739" y="-67.4" font-family="Times New Roman,serif" font-size="14.00">Test</text>
</g>
<!-- 1 -->
<g id="node2" class="node"><title>1</title>
<polygon fill="crimson" stroke="black" points="412,-52 330,-52 330,-16 412,-16 412,-52"/>
<text text-anchor="middle" x="371" y="-29.4" font-family="Times New Roman,serif" font-size="14.00">cdiv</text>
</g>
<!-- 2 -->
<g id="node3" class="node"><title>2</title>
<polygon fill="crimson" stroke="black" points="312,-52 226,-52 226,-16 312,-16 312,-52"/>
<text text-anchor="middle" x="269" y="-29.4" font-family="Times New Roman,serif" font-size="14.00">cmul</text>
</g>
<!-- 3 -->
<g id="node4" class="node"><title>3</title>
<polygon fill="crimson" stroke="black" points="208,-52 122,-52 122,-16 208,-16 208,-52"/>
<text text-anchor="middle" x="165" y="-29.4" font-family="Times New Roman,serif" font-size="14.00">csub</text>
</g>
<!-- 4 -->
<g id="node5" class="node"><title>4</title>
<polygon fill="crimson" stroke="black" points="104,-52 16,-52 16,-16 104,-16 104,-52"/>
<text text-anchor="middle" x="60" y="-29.4" font-family="Times New Roman,serif" font-size="14.00">csum</text>
</g>
<!-- 5 -->
<g id="node7" class="node"><title>5</title>
<polygon fill="crimson" stroke="black" points="622,-52 538,-52 538,-16 622,-16 622,-52"/>
<text text-anchor="middle" x="580" y="-29.4" font-family="Times New Roman,serif" font-size="14.00">main</text>
</g>
<!-- 6 -->
<g id="node8" class="node"><title>6</title>
<polygon fill="crimson" stroke="black" points="520,-52 436,-52 436,-16 520,-16 520,-52"/>
<text text-anchor="middle" x="478" y="-29.4" font-family="Times New Roman,serif" font-size="14.00">test1</text>
</g>
<!-- 7 -->
<g id="node10" class="node"><title>7</title>
<polygon fill="crimson" stroke="black" points="832,-52 748,-52 748,-16 832,-16 832,-52"/>
<text text-anchor="middle" x="790" y="-29.4" font-family="Times New Roman,serif" font-size="14.00">main</text>
</g>
<!-- 8 -->
<g id="node11" class="node"><title>8</title>
<polygon fill="crimson" stroke="black" points="730,-52 646,-52 646,-16 730,-16 730,-52"/>
<text text-anchor="middle" x="688" y="-29.4" font-family="Times New Roman,serif" font-size="14.00">test1</text>
</g>
</g>
</svg>
