<?xml version="1.0" encoding="UTF-8" standalone="no"?>
<!DOCTYPE svg PUBLIC "-//W3C//DTD SVG 1.1//EN"
 "http://www.w3.org/Graphics/SVG/1.1/DTD/svg11.dtd">
<!-- Generated by graphviz version 2.26.3 (20100126.1600)
 -->
<!-- Title: Entire Codebase Pages: 1 -->
<svg width="1054pt" height="54pt"
 viewBox="0.00 0.00 1054.00 54.00" xmlns="http://www.w3.org/2000/svg" xmlns:xlink="http://www.w3.org/1999/xlink">
<g id="graph1" class="graph" transform="scale(1 1) rotate(0) translate(4 50)">
<title>Entire Codebase</title>
<polygon fill="white" stroke="white" points="-4,5 -4,-50 1051,-50 1051,5 -4,5"/>
<!-- 1 -->
<g id="node1" class="node"><title>1</title>
<polygon fill="crimson" stroke="black" points="116,-46 2.84217e-014,-46 0,-1.42109e-014 116,-0 116,-46"/>
<text text-anchor="middle" x="58" y="-26.4" font-family="Times New Roman,serif" font-size="14.00">Calculator</text>
<text text-anchor="middle" x="58" y="-10.4" font-family="Times New Roman,serif" font-size="14.00">cdiv</text>
</g>
<!-- 2 -->
<g id="node2" class="node"><title>2</title>
<polygon fill="crimson" stroke="black" points="250,-46 134,-46 134,-1.42109e-014 250,-0 250,-46"/>
<text text-anchor="middle" x="192" y="-26.4" font-family="Times New Roman,serif" font-size="14.00">Calculator</text>
<text text-anchor="middle" x="192" y="-10.4" font-family="Times New Roman,serif" font-size="14.00">cmul</text>
</g>
<!-- 3 -->
<g id="node3" class="node"><title>3</title>
<polygon fill="crimson" stroke="black" points="384,-46 268,-46 268,-1.42109e-014 384,-0 384,-46"/>
<text text-anchor="middle" x="326" y="-26.4" font-family="Times New Roman,serif" font-size="14.00">Calculator</text>
<text text-anchor="middle" x="326" y="-10.4" font-family="Times New Roman,serif" font-size="14.00">csub</text>
</g>
<!-- 4 -->
<g id="node4" class="node"><title>4</title>
<polygon fill="crimson" stroke="black" points="518,-46 402,-46 402,-1.42109e-014 518,-0 518,-46"/>
<text text-anchor="middle" x="460" y="-26.4" font-family="Times New Roman,serif" font-size="14.00">Calculator</text>
<text text-anchor="middle" x="460" y="-10.4" font-family="Times New Roman,serif" font-size="14.00">csum</text>
</g>
<!-- 5 -->
<g id="node5" class="node"><title>5</title>
<polygon fill="crimson" stroke="black" points="680,-46 536,-46 536,-1.42109e-014 680,-0 680,-46"/>
<text text-anchor="middle" x="608" y="-26.4" font-family="Times New Roman,serif" font-size="14.00">Calculator.Test</text>
<text text-anchor="middle" x="608" y="-10.4" font-family="Times New Roman,serif" font-size="14.00">main</text>
</g>
<!-- 6 -->
<g id="node6" class="node"><title>6</title>
<polygon fill="crimson" stroke="black" points="842,-46 698,-46 698,-1.42109e-014 842,-0 842,-46"/>
<text text-anchor="middle" x="770" y="-26.4" font-family="Times New Roman,serif" font-size="14.00">Calculator.Test</text>
<text text-anchor="middle" x="770" y="-10.4" font-family="Times New Roman,serif" font-size="14.00">test1</text>
</g>
<!-- 7 -->
<g id="node7" class="node"><title>7</title>
<polygon fill="crimson" stroke="black" points="944,-46 860,-46 860,-1.42109e-014 944,-0 944,-46"/>
<text text-anchor="middle" x="902" y="-26.4" font-family="Times New Roman,serif" font-size="14.00">Test</text>
<text text-anchor="middle" x="902" y="-10.4" font-family="Times New Roman,serif" font-size="14.00">main</text>
</g>
<!-- 8 -->
<g id="node8" class="node"><title>8</title>
<polygon fill="crimson" stroke="black" points="1046,-46 962,-46 962,-1.42109e-014 1046,-0 1046,-46"/>
<text text-anchor="middle" x="1004" y="-26.4" font-family="Times New Roman,serif" font-size="14.00">Test</text>
<text text-anchor="middle" x="1004" y="-10.4" font-family="Times New Roman,serif" font-size="14.00">test1</text>
</g>
</g>
</svg>
