<?xml version="1.0" encoding="UTF-8" standalone="no"?>
<!DOCTYPE svg PUBLIC "-//W3C//DTD SVG 1.1//EN"
 "http://www.w3.org/Graphics/SVG/1.1/DTD/svg11.dtd">
<!-- Generated by graphviz version 2.26.3 (20100126.1600)
 -->
<!-- Title: Import visualisation Pages: 1 -->
<svg width="207pt" height="156pt"
 viewBox="0.00 0.00 207.00 156.00" xmlns="http://www.w3.org/2000/svg" xmlns:xlink="http://www.w3.org/1999/xlink">
<g id="graph1" class="graph" transform="scale(1 1) rotate(0) translate(4 152)">
<title>Import visualisation</title>
<polygon fill="white" stroke="white" points="-4,5 -4,-152 204,-152 204,5 -4,5"/>
<g id="graph2" class="cluster"><title>cluster_Calculator</title>
<polygon fill="lavender" stroke="black" points="9,-64 9,-140 107,-140 107,-64 9,-64"/>
<text text-anchor="middle" x="58" y="-123.4" font-family="Times New Roman,serif" font-size="14.00">Calculator</text>
</g>
<!-- 2 -->
<g id="node2" class="node"><title>2</title>
<polygon fill="crimson" stroke="black" points="99,-108 29,-108 29,-112 17,-112 17,-72 99,-72 99,-108"/>
<polyline fill="none" stroke="black" points="17,-108 29,-108 "/>
<text text-anchor="middle" x="58" y="-85.4" font-family="Times New Roman,serif" font-size="14.00">Test</text>
</g>
<!-- 1 -->
<g id="node3" class="node"><title>1</title>
<polygon fill="crimson" stroke="black" points="116,-36 12,-36 12,-40 3.15797e-014,-40 0,-1.06581e-014 116,-0 116,-36"/>
<polyline fill="none" stroke="black" points="2.84217e-014,-36 12,-36 "/>
<text text-anchor="middle" x="58" y="-13.4" font-family="Times New Roman,serif" font-size="14.00">Calculator</text>
</g>
<!-- 2&#45;&gt;1 -->
<g id="edge3" class="edge"><title>2&#45;&gt;1</title>
<path fill="none" stroke="chartreuse" d="M58,-71.8314C58,-64.131 58,-54.9743 58,-46.4166"/>
<polygon fill="chartreuse" stroke="chartreuse" points="61.5001,-46.4132 58,-36.4133 54.5001,-46.4133 61.5001,-46.4132"/>
</g>
<!-- 3 -->
<g id="node4" class="node"><title>3</title>
<polygon fill="crimson" stroke="black" points="199,-108 129,-108 129,-112 117,-112 117,-72 199,-72 199,-108"/>
<polyline fill="none" stroke="black" points="117,-108 129,-108 "/>
<text text-anchor="middle" x="158" y="-85.4" font-family="Times New Roman,serif" font-size="14.00">Test</text>
</g>
</g>
</svg>
